<!-- Hicon-inspired heart icon. Hicon is MIT-licensed: https://github.com/coswise/hicon -->
<svg viewBox="0 0 24 24" fill="none" xmlns="http://www.w3.org/2000/svg">
  <path d="M20.84 4.61C20.3294 4.099 19.723 3.694 19.0559 3.4179C18.3887 3.1418 17.6737 2.9998 16.9518 3C16.2298 3.0002 15.5149 3.1427 14.8479 3.4192C14.1809 3.6957 13.5746 4.101 13.0642 4.6123L12 5.6765L10.9358 4.6123C9.9048 3.5813 8.5065 3.0022 7.0485 3.0022C5.5905 3.0022 4.1922 3.5813 3.1612 4.6123C2.1302 5.6433 1.5511 7.0416 1.5511 8.4996C1.5511 9.9576 2.1302 11.3559 3.1612 12.3869L4.2254 13.451L12 21.2256L19.7746 13.451L20.8388 12.3869C21.3497 11.8762 21.7549 11.2698 22.0313 10.6027C22.3077 9.9356 22.4499 9.2206 22.4497 8.4986C22.4495 7.7766 22.3069 7.0617 22.0301 6.3948C21.7533 5.7278 21.3478 5.1218 20.8366 4.6114L20.84 4.61Z" stroke="#111111" stroke-width="1.8" stroke-linecap="round" stroke-linejoin="round"/>
</svg>
